<svg version="1.1" xmlns="http://www.w3.org/2000/svg" xmlns:xlink="http://www.w3.org/1999/xlink" width="128.03738" height="311.66636" viewBox="0,0,128.03738,311.66636"><g transform="translate(-205.68088,-293.95289)"><g data-paper-data="{&quot;isPaintingLayer&quot;:true}" fill-rule="nonzero" stroke="none" stroke-linecap="butt" stroke-linejoin="miter" stroke-miterlimit="10" stroke-dasharray="" stroke-dashoffset="0" style="mix-blend-mode: normal"><path d="M206.72309,605.61925v-311.2385h126.55382v311.2385z" fill="#424242" stroke-width="0"/><path d="M205.68088,421.99027v-128.03738h128.03738v128.03738z" fill="#797979" stroke-width="0"/><text transform="translate(211.25,444.23125) scale(0.5,0.5)" font-size="40" xml:space="preserve" fill="#000000" fill-rule="nonzero" stroke="none" stroke-width="1" stroke-linecap="butt" stroke-linejoin="miter" stroke-miterlimit="10" stroke-dasharray="" stroke-dashoffset="0" font-family="Pixel" font-weight="normal" text-anchor="start" style="mix-blend-mode: normal"><tspan x="0" dy="0">Max Health</tspan><tspan x="0" dy="46.150000000000006px">+1</tspan></text><text transform="translate(226.25,599.25209) scale(0.5,0.5)" font-size="40" xml:space="preserve" fill="#000000" fill-rule="nonzero" stroke="none" stroke-width="1" stroke-linecap="butt" stroke-linejoin="miter" stroke-miterlimit="10" stroke-dasharray="" stroke-dashoffset="0" font-family="Pixel" font-weight="normal" text-anchor="start" style="mix-blend-mode: normal"><tspan x="0" dy="0">50 coins</tspan></text><path d="M231.88507,351.34829c0,-1.38071 1.11929,-2.5 2.5,-2.5c1.38071,0 2.5,1.11929 2.5,2.5c0,1.38071 -1.11929,2.5 -2.5,2.5c-1.38071,0 -2.5,-1.11929 -2.5,-2.5z" fill="#000000" stroke-width="0.5"/><path d="M256.65117,335.38792c0,-1.38071 1.11929,-2.5 2.5,-2.5c1.38071,0 2.5,1.11929 2.5,2.5c0,1.38071 -1.11929,2.5 -2.5,2.5c-1.38071,0 -2.5,-1.11929 -2.5,-2.5z" fill="#000000" stroke-width="0.5"/><path d="M269.16251,321.11359c0.79057,-2.37171 3.16228,-1.58114 3.16228,-1.58114l2.62827,1.1543c3.64288,3.65416 5.89184,6.75822 7.67607,11.61718c0.65068,1.77201 2.7185,6.56327 2.39644,8.86827c-0.41488,2.96933 -2.33204,5.54353 -3.11736,8.43703c-0.90904,3.34933 -1.00122,6.18273 -2.68718,9.28618c-1.92179,3.53756 -5.89167,6.43083 -8.844,8.9628c-4.91057,3.92788 -9.49198,7.46625 -15.01368,10.46794c-3.6426,1.98018 -3.37855,2.73966 -7.43785,3.29309c-3.25162,0.44331 -4.31371,-0.20314 -7.48478,-0.54324c-3.98183,-0.42705 -7.4262,-0.57269 -11.06109,-2.46816c-1.59285,-0.83062 -6.4688,-3.99278 -7.36761,-4.73517c-2.52609,-2.08648 -4.10386,-4.56377 -6.90032,-6.41013c0,0 -2.08013,-1.38675 -0.69338,-3.46688c1.38675,-2.08013 3.46688,-0.69338 3.46688,-0.69338c5.00475,3.36386 8.35149,7.96863 13.80032,10.86901c3.04837,1.62263 5.94694,1.57559 9.30215,1.9347c2.54182,0.27205 3.78424,0.86078 6.27417,0.55748c2.81169,-0.3425 3.05236,-1.27279 5.77074,-2.76085c5.2063,-2.84995 9.51152,-6.17975 14.15528,-9.89529c2.37617,-2.03553 6.09607,-4.63677 7.66673,-7.54794c1.18325,-2.19312 1.63379,-5.99038 2.23391,-8.18069c0.72427,-2.64342 2.45198,-4.97622 2.9687,-7.66792c0.43468,-2.26433 -1.32911,-4.41843 -2.12171,-6.58359c-1.5384,-4.20248 -3.3466,-6.64429 -6.51795,-9.80492l-0.67388,0.05358c0,0 -2.37171,-0.79057 -1.58114,-3.16228z" fill="#000000" stroke-width="0.5"/></g></g></svg>