<svg version="1.1" xmlns="http://www.w3.org/2000/svg" xmlns:xlink="http://www.w3.org/1999/xlink" width="482.72656" height="60.39377" viewBox="0,0,482.72656,60.39377"><g transform="translate(-28.63672,-620.02054)"><g data-paper-data="{&quot;isPaintingLayer&quot;:true}" fill-rule="nonzero" stroke-linecap="butt" stroke-linejoin="miter" stroke-miterlimit="10" stroke-dasharray="" stroke-dashoffset="0" style="mix-blend-mode: normal"><path d="M31.63672,663.88189c0,-9.15011 0,-21.17675 0,-26.22951c0,-4.53366 4.66144,-10.35833 11.03875,-10.35833c8.10301,0 31.24546,-4.2735 62.60814,-4.2735c53.78887,0 139.02335,4.12358 212.88001,5.16457c77.64776,1.09443 143.37417,-0.89107 174.29541,-0.89107c10.18136,0 15.90426,6.92141 15.90426,11.99767c0,4.69701 0,14.66224 0,22.95082c0,7.27241 -4.676,13.25409 -13.09396,13.25409c-23.226,0 -75.71521,0.777 -136.29496,0.777c-65.92113,0 -142.13132,1.34286 -203.5717,1.14071c-56.42226,-0.18565 -100.38882,-1.91771 -112.493,-1.91771c-6.50323,0 -11.27294,-5.072 -11.27294,-11.61474z" fill="#a77b4b" stroke="#000000" stroke-width="6"/><path d="M114.89253,659.52058c0,-5.95415 0,-13.78011 0,-17.06804c0,-2.95014 3.03329,-6.74036 7.18312,-6.74036c6.61612,0 28.24246,2.96359 57.11148,2.96359c75.08215,0 199.15447,-2.96359 235.57113,-2.96359c6.6252,0 10.3492,4.50389 10.3492,7.80711c0,3.05643 0,9.541 0,14.93453c0,4.73229 -3.04276,8.62469 -8.52049,8.62469c-12.92208,0 -39.8181,-1.69348 -71.86216,-1.69348c-83.66968,0 -204.90051,1.69348 -222.49677,1.69348c-4.23177,0 -7.33551,-3.30045 -7.33551,-7.55793z" fill="#caaa85" stroke="#000000" stroke-width="4"/><text transform="translate(250.02028,659.21733) scale(0.5,0.5)" font-size="40" xml:space="preserve" fill="#000000" fill-rule="nonzero" stroke="none" stroke-width="1" stroke-linecap="butt" stroke-linejoin="miter" stroke-miterlimit="10" stroke-dasharray="" stroke-dashoffset="0" font-family="Pixel" font-weight="normal" text-anchor="start" style="mix-blend-mode: normal"><tspan x="0" dy="0">Exit</tspan></text></g></g></svg>