<svg version="1.1" xmlns="http://www.w3.org/2000/svg" xmlns:xlink="http://www.w3.org/1999/xlink" width="128.03739" height="311.66636" viewBox="0,0,128.03739,311.66636"><g transform="translate(-205.68089,-293.95288)"><g data-paper-data="{&quot;isPaintingLayer&quot;:true}" fill-rule="nonzero" stroke="none" stroke-linecap="butt" stroke-linejoin="miter" stroke-miterlimit="10" stroke-dasharray="" stroke-dashoffset="0" style="mix-blend-mode: normal"><path d="M206.72311,605.61925v-311.2385h126.55382v311.2385z" fill="#424242" stroke-width="0"/><path d="M205.6809,421.99028v-128.03739h128.03739v128.03739z" fill="#797979" stroke-width="0"/><text transform="translate(211.25002,444.23126) scale(0.5,0.5)" font-size="40" xml:space="preserve" fill="#000000" fill-rule="nonzero" stroke="none" stroke-width="1" stroke-linecap="butt" stroke-linejoin="miter" stroke-miterlimit="10" stroke-dasharray="" stroke-dashoffset="0" font-family="Pixel" font-weight="normal" text-anchor="start" style="mix-blend-mode: normal"><tspan x="0" dy="0">Luck</tspan><tspan x="0" dy="46.15px">+1</tspan></text><text transform="translate(222.50001,599.2521) scale(0.5,0.5)" font-size="40" xml:space="preserve" fill="#000000" fill-rule="nonzero" stroke="none" stroke-width="1" stroke-linecap="butt" stroke-linejoin="miter" stroke-miterlimit="10" stroke-dasharray="" stroke-dashoffset="0" font-family="Pixel" font-weight="normal" text-anchor="start" style="mix-blend-mode: normal"><tspan x="0" dy="0">150 coins</tspan></text><path d="M291.40717,349.39688c-0.16481,-0.03296 -0.31632,-0.07479 -0.45558,-0.12413c-1.11137,6.28273 -4.74295,12.72411 -9.04818,16.1342c-4.37602,3.46617 -7.94318,2.52684 -11.81515,-0.96313c-0.5548,-0.50007 -1.13854,-0.99645 -1.66396,-1.53715c-0.08231,0.39596 -0.18484,0.76057 -0.28954,1.04175c-1.04157,2.79707 -2.4322,6.43764 -6.56518,5.83792c-3.25257,-0.47196 -7.22045,-6.0668 -9.13597,-8.4617c-1.56015,-2.55299 -2.10653,-4.62225 -2.73055,-7.40184c-0.48705,0.19624 -0.97982,0.38986 -1.47873,0.58114c-3.45483,1.32459 -5.10472,2.29496 -8.82738,1.15007c-4.64096,-1.42731 -7.6899,-5.45767 -6.25141,-10.41344c0.36924,-1.27209 1.58736,-2.12866 2.49874,-3.08988c1.08609,-1.14547 2.4038,-2.2133 3.86205,-3.18828c0.49677,-1.95709 1.35705,-3.82799 2.3185,-5.60306c3.77997,-6.97871 8.15269,-16.92912 16.69709,-19.10311c6.18021,-1.57246 12.10229,1.32191 17.57746,3.70027c2.51475,1.09239 5.04147,2.55116 6.85264,4.61011c1.24765,-0.54871 2.46526,0.36449 2.46526,0.36449c7.09496,5.36507 11.71788,14.53514 9.14993,23.35678l-0.21829,1.14781c0,0 -0.49029,2.45145 -2.94174,1.96116zM250.51319,347.28531c0.71671,-0.19547 1.27853,-0.11988 1.71423,0.08294c5.00501,-2.27811 8.92196,-4.89302 13.30935,-8.40219c2.43813,-1.7486 2.15751,-2.12909 -0.94187,-4.0781c-1.90141,-1.19568 -5.98328,-1.80548 -8.13953,-1.20237c-0.22242,0.06221 -0.44544,0.13949 -0.66873,0.22998c0.26278,0.29365 0.47599,0.69923 0.5876,1.25724c0.49029,2.45145 -1.96116,2.94174 -1.96116,2.94174c-2.17758,0.41531 -4.58288,1.22681 -6.90151,2.26203l-0.07638,0.08125c0,0 -0.73872,0.73872 -1.73862,0.78355c-1.67402,0.84895 -3.25413,1.79642 -4.61098,2.77145c-3.12382,2.24479 -5.01918,5.23679 -0.15486,6.88224c2.25843,0.76396 5.35508,-0.68122 7.81705,-1.90297c0.15371,-0.66547 0.60314,-1.3898 1.76543,-1.70679zM254.4234,352.12396c0.53751,2.41568 0.74599,4.23301 2.08926,6.30908c1.59324,1.99107 3.60661,4.90747 5.72369,6.39796c0.72847,0.51286 0.90455,-1.55818 1.13982,-2.41745c0.56583,-2.06656 0.6879,-6.76677 3.19428,-7.44759c1.69577,-0.46063 3.00786,1.84286 4.35289,2.97365c2.50294,2.10426 4.1911,6.77531 7.85314,3.56576c4.55927,-3.99591 9.09006,-12.98407 7.09054,-19.22924c-0.99188,-3.09798 -2.50025,-6.01431 -3.49473,-9.11145c-1.38653,-3.36412 -2.33528,-7.52757 -5.57671,-9.70221c-0.78157,-0.52434 -1.80474,-0.54691 -2.67185,-0.91283c-4.42169,-1.86591 -9.3137,-4.67627 -14.34329,-3.45438c-2.11557,0.51396 -4.64873,2.74571 -5.99919,4.30551c-2.64128,3.0507 -5.67369,7.34624 -7.64249,11.59756c5.4238,-4.1341 9.82034,-7.78787 17.45815,-5.89152c5.36403,1.33181 10.25187,5.42714 7.629,11.378c-0.45963,1.04282 -1.66664,1.55474 -2.49996,2.33211c-4.66642,3.7339 -9.24611,6.62413 -14.36819,9.06612zM290.23672,339.56774c-0.32089,-2.69084 -1.42588,-5.31159 -3.00211,-7.61671c0.8787,2.58153 2.09595,5.04631 3.00211,7.61671z" fill="#000000" stroke-width="0.5"/></g></g></svg>