<svg version="1.1" xmlns="http://www.w3.org/2000/svg" xmlns:xlink="http://www.w3.org/1999/xlink" width="128.03738" height="311.66637" viewBox="0,0,128.03738,311.66637"><g transform="translate(-205.98131,-294.16681)"><g data-paper-data="{&quot;isPaintingLayer&quot;:true}" fill-rule="nonzero" stroke="none" stroke-linecap="butt" stroke-linejoin="miter" stroke-miterlimit="10" stroke-dasharray="" stroke-dashoffset="0" style="mix-blend-mode: normal"><path d="M207.02352,605.83318v-311.2385h126.55382v311.2385z" fill="#424242" stroke-width="0"/><path d="M205.98131,422.2042v-128.03739h128.03738v128.03739z" fill="#797979" stroke-width="0"/><text transform="translate(211.25,444.23125) scale(0.5,0.5)" font-size="40" xml:space="preserve" fill="#000000" fill-rule="nonzero" stroke="none" stroke-width="1" stroke-linecap="butt" stroke-linejoin="miter" stroke-miterlimit="10" stroke-dasharray="" stroke-dashoffset="0" font-family="Pixel" font-weight="normal" text-anchor="start" style="mix-blend-mode: normal"><tspan x="0" dy="0">Refuel</tspan></text><text transform="translate(222.5,599.25209) scale(0.5,0.5)" font-size="40" xml:space="preserve" fill="#000000" fill-rule="nonzero" stroke="none" stroke-width="1" stroke-linecap="butt" stroke-linejoin="miter" stroke-miterlimit="10" stroke-dasharray="" stroke-dashoffset="0" font-family="Pixel" font-weight="normal" text-anchor="start" style="mix-blend-mode: normal"><tspan x="0" dy="0">100 coins</tspan></text><path d="M311.84155,354.49466c0.79057,2.37171 -1.58114,3.16228 -1.58114,3.16228l-1.78848,0.58429c-2.16334,0.48949 -4.70637,0.9171 -7.25668,1.06787c-1.69644,1.67611 -3.41697,3.32223 -5.46822,4.74208c-3.48136,1.06002 -5.32943,2.21745 -9.06818,0.94262c-1.48594,-0.50667 -2.68195,-1.63763 -3.96203,-2.54655c-3.0989,-2.20036 -8.28054,-6.4438 -9.18286,-10.40974c-0.3655,-1.60647 -0.26454,-3.30682 -0.06459,-4.94217c0.3717,-3.04017 2.26885,-5.56432 4.43621,-7.78252c-0.29018,-3.1013 -0.12115,-6.59602 -0.54291,-9.09761c0,0 -0.411,-2.46598 2.05499,-2.87698c2.46598,-0.411 2.87698,2.05499 2.87698,2.05499c0.26851,1.62833 0.63545,3.24345 0.80553,4.88498c0.00407,0.03923 0.00775,0.07917 0.01107,0.11978c4.39227,-4.12264 7.94247,-7.18218 14.26614,-7.09144c0.04783,-0.23179 0.13288,-0.47901 0.2642,-0.74165c1.11804,-2.23607 3.35411,-1.11804 3.35411,-1.11804l2.85116,1.56901c3.57236,3.59115 9.25256,10.10911 9.53406,15.38728c0.25832,4.84339 -2.30923,7.96655 -5.44703,10.76549l0.74539,-0.25511c0,0 2.37171,-0.79057 3.16228,1.58114zM293.98191,358.73456c-5.43791,-1.50279 -9.80712,-8.36802 -12.98933,-12.55307c-0.37643,-0.49505 -0.85056,-0.92718 -1.27727,-1.38766c-0.66394,0.96152 -1.1494,1.99255 -1.31051,3.10242c-0.69224,4.76864 5.76001,10.74608 9.90554,12.37122c1.83161,0.71803 3.56517,-0.1842 5.24112,-0.70845c0.31667,-0.22527 0.625,-0.45801 0.92634,-0.69704c-0.16719,-0.03983 -0.33254,-0.08228 -0.49589,-0.12742zM283.42225,341.54992c0.29521,0.64283 1.04391,0.96338 1.48272,1.5182c2.31216,2.9234 4.36555,5.44354 6.88301,8.16194c1.05378,1.13789 1.92609,2.30738 3.52859,2.68593c1.21684,0.28744 2.54891,0.41814 3.91697,0.43372c1.10032,-1.12537 2.21493,-2.24186 3.44012,-3.26556c2.74649,-2.29483 5.8707,-4.18579 5.71502,-8.40214c-0.06275,-1.69959 -2.38189,-4.56951 -2.91755,-5.40526c-1.40568,-2.1932 -2.76625,-4.19486 -4.52083,-6.06716c-0.73401,1.33116 -2.42215,1.16235 -2.42215,1.16235c-6.43189,-0.70161 -9.09947,2.9613 -13.44618,7.03634c-0.55621,0.52145 -1.18878,1.06995 -1.83825,1.6493c0.04957,0.17526 0.10859,0.34005 0.17852,0.49233z" fill="#000000" stroke-width="0.5"/><path d="M246.76783,357.39407c3.21463,-1.6755 5.83426,-4.07357 9.15778,-5.57458c3.02666,-1.36694 6.94332,-1.59491 9.16561,-4.39272c1.44086,-1.81401 -0.05022,-3.96082 -0.96587,-5.58755c-0.95204,-1.69138 -2.04369,-3.43511 -3.31141,-4.98361c1.31564,3.93261 -0.79372,8.60178 -5.19396,9.49066c-1.77255,0.35807 -2.99736,0.32067 -4.05486,0.01247c0.1495,2.21341 -0.09063,4.47677 -0.61155,5.50977c-1.20818,2.39589 -3.66427,4.02717 -6.29884,4.79369c0.68849,0.29175 1.39149,0.54538 2.11312,0.73187zM251.72134,326.83399c2.83255,0.02668 4.14755,-0.31724 6.74641,1.15635c1.05512,0.59827 4.14212,3.68477 4.99433,4.59824c4.1248,4.42129 9.76825,11.63533 5.70943,17.72803c-2.60427,3.90927 -7.32575,4.32938 -11.19763,6.06408c-3.79834,1.70175 -6.74604,4.38181 -10.65511,5.98293c-2.37468,-0.41476 -4.734,-1.11091 -6.89708,-2.17496l-2.30081,-2.11937c0,0 -0.53787,-0.53787 -0.72354,-1.31692c-0.39444,0.28344 -0.77835,0.60773 -1.23987,0.64162c-1.47957,0.10866 -3.14054,0.1783 -4.41185,-0.58635c-3.26535,-1.964 -3.82793,-6.62789 -4.49005,-9.92226l-0.04855,-1.31582c0,0 0,-0.79415 0.44759,-1.48727c1.03114,-3.62016 4.10491,-6.41106 6.5559,-9.02642c4.51055,-4.81302 9.30969,-8.96268 15.56095,-7.37611c0.73606,-0.84576 1.94986,-0.84576 1.94986,-0.84576zM232.6635,348.90309c0.29034,1.43891 0.74251,2.88691 1.60923,3.59018c1.03978,0.84371 2.50705,-1.09663 3.8443,-1.16545c2.5984,-0.13373 6.48555,2.14066 8.31817,-1.60045c0.92585,-1.89002 -0.6468,-4.57409 -1.06376,-6.29852l-1.25324,-2.00519c-0.25333,-0.39096 -0.40043,-0.85714 -0.40043,-1.35769c0,-1.38071 1.11929,-2.5 2.5,-2.5c0.57191,0 1.09897,0.19205 1.5202,0.51515l2.13266,1.59949c1.6787,1.12543 5.55289,3.43432 6.55289,-0.09981c0.29593,-1.04584 -1.40101,-2.05034 -1.7919,-2.42512c-0.30919,-0.29644 -3.29597,-3.38299 -3.92687,-3.75504c-5.56538,-3.28202 -9.35766,1.35485 -12.84299,5.07113c-2.15538,2.29821 -5.99021,5.07474 -4.88872,8.48169c0,0 0.23763,1.06933 -0.30954,1.94962z" fill="#000000" stroke-width="0.5"/><path d="M306.50533,387.67191l-0.38,-0.22428c0.48083,1.57945 2.24889,3.29765 1.4425,4.73835c-0.55677,0.99474 -5.86369,1.39134 -7.43919,1.55062c-0.66399,2.63004 -1.80391,5.05485 -2.98033,6.50853c-0.81069,1.00176 -2.05047,1.56156 -3.0757,2.34234c-7.38729,1.90431 -14.76208,0.2941 -22.28962,1.05579l-0.28373,0.15929c0,0 -2.37171,0.79058 -3.16228,-1.58113c-0.10642,-0.31925 -0.15553,-0.60985 -0.16085,-0.87373c-1.06815,-0.70008 -1.06815,-2.11828 -1.06815,-2.11828c0.00275,-0.76114 0.01522,-1.54708 0.05535,-2.33685c-2.21438,0.78457 -4.84723,1.44052 -6.67795,0.04887c-1.20289,-0.9144 -0.4361,-2.99372 -0.77494,-4.46622c-0.41471,-1.80219 -1.02859,-3.58251 -1.65771,-5.36188l-0.69135,0.21059c0,0 -2.40381,0.6868 -3.09061,-1.71701c-0.6868,-2.40381 1.71701,-3.09061 1.71701,-3.09061l0.19306,-0.04941l-0.05662,0c0,0 -2.5,0 -2.5,-2.5c0,-1.53994 0.94856,-2.13131 1.67711,-2.35841c-0.08699,-0.57018 -0.07383,-1.12485 0.16817,-1.63464c1.53241,-3.22803 4.87236,-2.90113 7.58117,-3.17455c6.29801,-0.63571 12.60642,-1.38231 18.94036,-1.38633c0,0 0.35667,0 0.80056,0.13472c0.21942,-0.49899 0.48005,-0.95445 0.78932,-1.35275c2.98547,-3.84489 8.7626,-2.55054 12.8327,-2.35673c1.93928,0.09235 4.67342,-0.22752 6.49761,0.41517c1.31008,0.46156 5.71144,3.69669 6.00938,5.1092c0.30159,1.42979 -0.74635,2.83647 -1.32111,4.17994c-1.12955,2.64026 -2.05487,4.29208 -2.80477,7.09439c-0.05216,0.19494 -0.09354,0.39641 -0.12995,0.60105c1.84055,0.39559 1.84055,2.43395 1.84055,2.43395zM264.64586,391.67431c0.01797,0.58864 -1.00325,1.04486 -0.77494,1.58772c0.17918,0.42605 0.66004,-0.67117 1.07367,-0.8774c0.86209,-0.42983 1.80554,-0.67218 2.70831,-1.00827l0.59299,-0.11089c0.10665,-0.25205 0.22322,-0.49747 0.35063,-0.7352c-1.751,0.28363 -3.33625,0.29652 -4.30463,-0.28347c0.18604,0.46411 0.3389,0.93378 0.35398,1.42752zM277.40939,377.49698c0,0 0.00353,0.00192 0.01022,0.00576c2.20738,-0.4632 2.84754,1.77736 2.84754,1.77736l0.61748,2.23291c0.02858,1.81634 1.01365,3.88733 0.08573,5.44903c-0.42293,0.71179 -1.2579,0.92365 -2.15616,1.04425c2.3695,0.9703 4.8317,2.02833 6.43573,1.02002c0.28801,-0.18104 0.57257,-0.39641 0.85532,-0.63771c-1.05723,-0.47385 -2.09314,-0.99785 -3.10992,-1.54892c0,0 -1.88192,-1.0265 -1.20992,-2.92108c-0.09295,-0.37107 -0.09295,-0.64956 -0.09295,-0.64956c0.00165,-1.84318 -0.1208,-4.39269 0.06559,-6.85587c-1.99347,0.00502 -3.9832,0.09117 -5.97051,0.22461c0.53312,0.27312 1.07229,0.55984 1.62186,0.85919zM267.42777,382.33961c0.04716,1.01237 0.29873,2.01796 0.24893,3.03021c-0.01551,0.31531 -0.74861,0.77583 -0.43931,0.83901c1.28554,0.26261 2.2683,-1.38133 3.52988,-1.74191c1.71397,-0.48988 3.45569,-0.96313 5.23278,-1.10323c0.37825,-0.02982 0.97761,0.99413 0.9577,0.61522c-0.03471,-0.66068 -0.67666,-1.13708 -1.01498,-1.70562l-0.02908,-0.09747c-0.52402,-0.08508 -0.89855,-0.28937 -0.89855,-0.28937c-2.78038,-1.51879 -5.15896,-2.69045 -8.05622,-3.26737c0.25564,1.2265 0.41086,2.47542 0.46886,3.72053zM294.0948,387.36182c0.01316,-0.10527 0.03023,-0.20551 0.05085,-0.30096c-0.39548,0.41241 -0.79768,1.06061 -1.15229,1.39177c-1.80604,1.68662 -3.24659,3.91179 -5.45553,5.01952c-1.39351,0.69882 -3.04524,0.85218 -4.60388,0.82245c-3.13331,-0.05976 -8.50107,-4.31362 -10.2773,-1.00843c0.07515,0.79507 -0.16417,1.35682 -0.50484,1.75082c-0.025,0.19295 -0.04467,0.39702 -0.05878,0.61271c-0.06415,0.98089 -0.01585,1.96522 0.00594,2.94873c6.57749,-0.47865 13.42451,0.99437 19.82477,-0.52564c2.45258,-1.77369 3.34415,-5.11538 3.53021,-8.03756c0.0025,-0.03933 0.00578,-0.0816 0.00963,-0.12648c-0.69427,-0.31634 -1.55954,-1.02097 -1.36879,-2.54693zM299.8622,384.99645c0.34476,-0.33643 -0.02289,-0.96828 0.05159,-1.4442c0.22627,-1.44591 0.94621,-4.17276 1.54508,-5.45554c0.46946,-1.00557 1.06084,-1.95577 1.70409,-2.86009c0.22639,-0.31827 0.92648,-0.38544 0.88032,-0.77328c-0.04014,-0.33722 -0.69772,-0.04858 -0.9972,-0.2087c-0.65015,-0.34761 -1.10245,-1.04525 -1.79914,-1.28639c-2.76206,-0.95599 -7.67953,-0.50242 -10.60084,-0.41091c-0.33963,0.01064 -2.62462,-0.08371 -3.09031,0.67078c-1.39739,2.26396 -0.88342,7.26942 -0.86389,9.91162c1.00506,0.51013 2.03344,0.97669 3.08928,1.36447c2.12134,-2.20745 4.50747,-3.90064 7.75088,-2.03478c1.05904,0.60924 1.81553,1.48548 2.32493,2.53206c0.00174,-0.00168 0.00347,-0.00336 0.0052,-0.00505z" fill="#000000" stroke-width="0.5"/><path d="M290.58918,339.94461c0,-1.38071 1.11929,-2.5 2.5,-2.5c1.38071,0 2.5,1.11929 2.5,2.5c0,1.38071 -1.11929,2.5 -2.5,2.5c-1.38071,0 -2.5,-1.11929 -2.5,-2.5z" fill="#000000" stroke-width="0.5"/><path d="M297.08944,346.70488c0,-1.38071 1.11929,-2.5 2.5,-2.5c1.38071,0 2.5,1.11929 2.5,2.5c0,1.38071 -1.11929,2.5 -2.5,2.5c-1.38071,0 -2.5,-1.11929 -2.5,-2.5z" fill="#000000" stroke-width="0.5"/></g></g></svg>